<?xml version="1.0" encoding="UTF-8"?>
<!-- Created with Inkscape (http://www.inkscape.org/) -->
<svg version="1.1" viewBox="0 0 203.61 32.565" xmlns="http://www.w3.org/2000/svg">
 <g transform="translate(-7.1313 -41.717)">
  <g transform="translate(0 -2.4822)">
   <circle cx="20.753" cy="57.82" r="13" fill="#ed7d8a" stroke="#d40000" stroke-width="1.2424"/>
   <path d="m32.599 75.532a11.846 1.232 0 0 1-5.9231 1.067 11.846 1.232 0 0 1-11.846 0 11.846 1.232 0 0 1-5.9231-1.067h11.846z" fill="#f4f4f4"/>
   <g fill="#d0021b" stroke-linecap="round">
    <path d="m25.155 63.364c1.207-0.68751-0.32186-4.367-4.295-4.2829-3.9731 0.08411-6.0258 3.4994-4.295 4.2829h4.295z" stroke-width="1.4541"/>
    <path d="m14.883 53.684c-0.83951 0.04378-1.6633 0.41092-2.4062 1.0293a0.55 0.55 0 0 0-0.07031 0.77539 0.55 0.55 0 0 0 0.77539 0.07031c0.60185-0.50096 1.2014-0.74833 1.7578-0.77734 0.55643-0.02902 1.0895 0.14605 1.6152 0.59375a0.55 0.55 0 0 0 0.77539-0.0625 0.55 0.55 0 0 0-0.0625-0.77539c-0.70814-0.60303-1.5453-0.89729-2.3848-0.85352z" color="#000000" style="-inkscape-stroke:none"/>
    <path d="m26.648 53.684c-0.83951 0.04378-1.6633 0.41092-2.4062 1.0293a0.55 0.55 0 0 0-0.07031 0.77539 0.55 0.55 0 0 0 0.77539 0.07031c0.60185-0.50096 1.2014-0.74833 1.7578-0.77734 0.55643-0.02902 1.0875 0.14605 1.6133 0.59375a0.55 0.55 0 0 0 0.77539-0.0625 0.55 0.55 0 0 0-0.06055-0.77539c-0.70814-0.60303-1.5453-0.89729-2.3848-0.85352z" color="#000000" style="-inkscape-stroke:none"/>
   </g>
  </g>
  <g transform="translate(3.8129 -.75816)">
   <circle cx="61.032" cy="56.096" r="13" fill="#ffa5c3" stroke="#f59" stroke-width="1.2424"/>
   <path d="m72.878 73.808a11.846 1.232 0 0 1-5.9231 1.067 11.846 1.232 0 0 1-11.846 0 11.846 1.232 0 0 1-5.9231-1.067h11.846z" fill="#f4f4f4"/>
   <g transform="translate(-33.288 89.396)" fill="#f59" stroke-linecap="round">
    <path d="m94.201-30.828c-1.345 0.02937-2.6397 0.45688-3.7441 1.1953a0.5 0.5 0 0 0-0.13672 0.69336 0.5 0.5 0 0 0 0.69336 0.13672c1.9114-1.278 4.3972-1.4927 6.6855 0.0039a0.5 0.5 0 0 0 0.69141-0.14453 0.5 0.5 0 0 0-0.14453-0.69336c-1.3044-0.85313-2.6999-1.2208-4.0449-1.1914z" color="#000000" style="-inkscape-stroke:none"/>
    <path d="m89.349-35.517a0.75816 0.75816 0 0 1-0.75816 0.75816 0.75816 0.75816 0 0 1-0.75816-0.75816 0.75816 0.75816 0 0 1 0.75816-0.75816 0.75816 0.75816 0 0 1 0.75816 0.75816z" color="#000000" stroke-width="1.1" style="-inkscape-stroke:none"/>
    <path d="m88.59-36.824c-0.71596 0-1.3066 0.59068-1.3066 1.3066s0.59068 1.3086 1.3066 1.3086 1.3086-0.59263 1.3086-1.3086c1e-6 -0.71596-0.59263-1.3066-1.3086-1.3066zm0 1.0996c0.12148 0 0.20898 0.08555 0.20898 0.20703 0 0.12148-0.08751 0.20898-0.20898 0.20898-0.12148 0-0.20703-0.08751-0.20703-0.20898 0-0.12148 0.08555-0.20703 0.20703-0.20703z" color="#000000" style="-inkscape-stroke:none"/>
    <path d="m100.81-35.517a0.75816 0.75816 0 0 1-0.75816 0.75816 0.75816 0.75816 0 0 1-0.75816-0.75816 0.75816 0.75816 0 0 1 0.75816-0.75816 0.75816 0.75816 0 0 1 0.75816 0.75816z" color="#000000" stroke-width="1.1" style="-inkscape-stroke:none"/>
    <path d="m100.05-36.824c-0.71596 3e-6 -1.3086 0.59068-1.3086 1.3066s0.59263 1.3086 1.3086 1.3086c0.71596-1e-6 1.3066-0.59263 1.3066-1.3086 0-0.71596-0.59068-1.3066-1.3066-1.3066zm0 1.0996c0.12148 0 0.20703 0.08555 0.20703 0.20703 0 0.12148-0.0856 0.20898-0.20703 0.20898-0.12148 0-0.20898-0.08751-0.20898-0.20898 0-0.12148 0.08751-0.20703 0.20898-0.20703z" color="#000000" style="-inkscape-stroke:none"/>
   </g>
  </g>
  <circle cx="108.94" cy="55.338" r="13" fill="#e9e9e9" stroke="#999" stroke-width="1.2424"/>
  <path d="m120.78 73.05a11.846 1.232 0 0 1-5.9231 1.067 11.846 1.232 0 0 1-11.846 0 11.846 1.232 0 0 1-5.9231-1.067h11.846z" fill="#f4f4f4"/>
  <g fill="#999" stroke-linecap="round">
   <path d="m103.97 53.122a0.75816 0.75816 0 0 1-0.75816 0.75816 0.75816 0.75816 0 0 1-0.75816-0.75816 0.75816 0.75816 0 0 1 0.75816-0.75816 0.75816 0.75816 0 0 1 0.75816 0.75816z" color="#000000" stroke-width="1.1" style="-inkscape-stroke:none"/>
   <path d="m103.21 51.814c-0.71596 0-1.3066 0.59068-1.3066 1.3066s0.59068 1.3086 1.3066 1.3086c0.71597 0 1.3086-0.59263 1.3086-1.3086s-0.59263-1.3066-1.3086-1.3066zm0 1.0996c0.12148 0 0.20899 0.08555 0.20899 0.20703 0 0.12148-0.0875 0.20898-0.20899 0.20898-0.12147 0-0.20703-0.08751-0.20703-0.20898 0-0.12148 0.0856-0.20703 0.20703-0.20703z" color="#000000" style="-inkscape-stroke:none"/>
   <path d="m115.42 53.122a0.75816 0.75816 0 0 1-0.75816 0.75816 0.75816 0.75816 0 0 1-0.75816-0.75816 0.75816 0.75816 0 0 1 0.75816-0.75816 0.75816 0.75816 0 0 1 0.75816 0.75816z" color="#000000" stroke-width="1.1" style="-inkscape-stroke:none"/>
   <path d="m114.67 51.814c-0.71596 3e-6 -1.3086 0.59068-1.3086 1.3066s0.59263 1.3086 1.3086 1.3086c0.71596-1e-6 1.3066-0.59263 1.3066-1.3086 0-0.71596-0.59068-1.3066-1.3066-1.3066zm0 1.0996c0.12148 0 0.20703 0.08555 0.20703 0.20703 0 0.12148-0.0856 0.20898-0.20703 0.20898-0.12148 0-0.20898-0.08751-0.20898-0.20898 0-0.12148 0.0875-0.20703 0.20898-0.20703z" color="#000000" style="-inkscape-stroke:none"/>
  </g>
  <circle cx="153.03" cy="55.338" r="13" fill="#b1ea6f" stroke="#71c837" stroke-width="1.2424"/>
  <path d="m164.88 73.05a11.846 1.232 0 0 1-5.9231 1.067 11.846 1.232 0 0 1-11.846 0 11.846 1.232 0 0 1-5.9231-1.067h11.846z" fill="#f4f4f4"/>
  <g fill="#64b507" stroke-linecap="round">
   <path d="m152.91 59.919c-1.345-0.02937-2.6397-0.45688-3.7441-1.1953a0.5 0.5 0 0 1-0.13672-0.69336 0.5 0.5 0 0 1 0.69336-0.13672c1.9114 1.278 4.3972 1.4927 6.6855-0.0039a0.5 0.5 0 0 1 0.69141 0.14453 0.5 0.5 0 0 1-0.14453 0.69336c-1.3044 0.85313-2.6999 1.2208-4.0449 1.1914z" color="#000000" style="-inkscape-stroke:none"/>
   <path d="m148.06 53.122a0.75816 0.75816 0 0 1-0.75816 0.75816 0.75816 0.75816 0 0 1-0.75816-0.75816 0.75816 0.75816 0 0 1 0.75816-0.75816 0.75816 0.75816 0 0 1 0.75816 0.75816z" color="#000000" stroke-width="1.1" style="-inkscape-stroke:none"/>
   <path d="m147.3 51.814c-0.71596 0-1.3066 0.59068-1.3066 1.3066s0.59068 1.3086 1.3066 1.3086 1.3086-0.59263 1.3086-1.3086-0.59263-1.3066-1.3086-1.3066zm0 1.0996c0.12148 0 0.20898 0.08555 0.20898 0.20703 0 0.12148-0.0875 0.20898-0.20898 0.20898s-0.20703-0.08751-0.20703-0.20898c0-0.12148 0.0856-0.20703 0.20703-0.20703z" color="#000000" style="-inkscape-stroke:none"/>
   <path d="m159.52 53.122a0.75816 0.75816 0 0 1-0.75816 0.75816 0.75816 0.75816 0 0 1-0.75816-0.75816 0.75816 0.75816 0 0 1 0.75816-0.75816 0.75816 0.75816 0 0 1 0.75816 0.75816z" color="#000000" stroke-width="1.1" style="-inkscape-stroke:none"/>
   <path d="m158.76 51.814c-0.71596 3e-6 -1.3086 0.59068-1.3086 1.3066s0.59264 1.3086 1.3086 1.3086c0.71596-1e-6 1.3066-0.59263 1.3066-1.3086 0-0.71596-0.59068-1.3066-1.3066-1.3066zm0 1.0996c0.12148 0 0.20703 0.08555 0.20703 0.20703 0 0.12148-0.0856 0.20898-0.20703 0.20898-0.12148 0-0.20899-0.08751-0.20899-0.20898 0-0.12148 0.0875-0.20703 0.20899-0.20703z" color="#000000" style="-inkscape-stroke:none"/>
  </g>
  <circle cx="197.12" cy="55.338" r="13" fill="#9fce68" stroke="#447821" stroke-width="1.2424"/>
  <path d="m208.97 73.05a11.846 1.232 0 0 1-5.9231 1.067 11.846 1.232 0 0 1-11.846 0 11.846 1.232 0 0 1-5.9231-1.067h11.846z" fill="#f4f4f4"/>
  <g fill="#417505" stroke-linecap="round">
   <path d="m192.15 53.122a0.75816 0.75816 0 0 1-0.75816 0.75816 0.75816 0.75816 0 0 1-0.75817-0.75816 0.75816 0.75816 0 0 1 0.75817-0.75816 0.75816 0.75816 0 0 1 0.75816 0.75816z" color="#000000" stroke-width="1.1" style="-inkscape-stroke:none"/>
   <path d="m191.39 51.814c-0.71596 0-1.3066 0.59068-1.3066 1.3066s0.59068 1.3086 1.3066 1.3086c0.71597 0 1.3086-0.59263 1.3086-1.3086s-0.59263-1.3066-1.3086-1.3066zm0 1.0996c0.12148 0 0.20899 0.08555 0.20899 0.20703 0 0.12148-0.0875 0.20898-0.20899 0.20898-0.12148 0-0.20703-0.08751-0.20703-0.20898 0-0.12148 0.0855-0.20703 0.20703-0.20703z" color="#000000" style="-inkscape-stroke:none"/>
   <path d="m203.61 53.122a0.75816 0.75816 0 0 1-0.75816 0.75816 0.75816 0.75816 0 0 1-0.75816-0.75816 0.75816 0.75816 0 0 1 0.75816-0.75816 0.75816 0.75816 0 0 1 0.75816 0.75816z" color="#000000" stroke-width="1.1" style="-inkscape-stroke:none"/>
   <path d="m202.85 51.814c-0.71596 3e-6 -1.3086 0.59068-1.3086 1.3066s0.59263 1.3086 1.3086 1.3086c0.71596-1e-6 1.3066-0.59263 1.3066-1.3086 0-0.71596-0.59068-1.3066-1.3066-1.3066zm0 1.0996c0.12148 0 0.20703 0.08555 0.20703 0.20703 0 0.12148-0.0856 0.20898-0.20703 0.20898-0.12148 0-0.20898-0.08751-0.20898-0.20898 0-0.12148 0.0875-0.20703 0.20898-0.20703z" color="#000000" style="-inkscape-stroke:none"/>
   <path d="m202.05 57.355c1.207 0.68751-0.32187 4.367-4.295 4.2829-3.9731-0.0841-6.0258-3.4994-4.295-4.2829h4.295z" stroke-width="1.4541"/>
  </g>
  <path d="m107.31 60.551a0.5 0.5 0 0 0-0.45898 0.53711 0.5 0.5 0 0 0 0.53906 0.45898c1.0342-0.08228 2.0568 0.06836 3.1758 0.06836a0.5 0.5 0 0 0 0.5-0.5 0.5 0.5 0 0 0-0.5-0.5c-1.0225 0-2.0796-0.15803-3.2559-0.06445z" color="#000000" fill="#999" stroke-linecap="round" style="-inkscape-stroke:none"/>
 </g>
</svg>
