<?xml version="1.0" encoding="UTF-8"?>
<!-- Created with Inkscape (http://www.inkscape.org/) -->
<svg width="7.2079mm" height="7.2079mm" version="1.1" viewBox="0 0 7.2079 7.2079" xmlns="http://www.w3.org/2000/svg">
 <g transform="translate(-53.631 -146.34)">
  <circle cx="57.235" cy="149.94" r="3.4396" fill="#b1ea6f" stroke="#71c837" stroke-width=".32872"/>
  <g transform="matrix(.26458 0 0 .26458 16.746 135.3)" fill="#64b507" stroke-linecap="round">
   <path d="m152.91 59.919c-1.345-0.02937-2.6397-0.45688-3.7441-1.1953a0.5 0.5 0 0 1-0.13672-0.69336 0.5 0.5 0 0 1 0.69336-0.13672c1.9114 1.278 4.3972 1.4927 6.6855-0.0039a0.5 0.5 0 0 1 0.69141 0.14453 0.5 0.5 0 0 1-0.14453 0.69336c-1.3044 0.85313-2.6999 1.2208-4.0449 1.1914z" color="#000000" style="-inkscape-stroke:none"/>
   <path d="m148.06 53.122a0.75816 0.75816 0 0 1-0.75816 0.75816 0.75816 0.75816 0 0 1-0.75816-0.75816 0.75816 0.75816 0 0 1 0.75816-0.75816 0.75816 0.75816 0 0 1 0.75816 0.75816z" color="#000000" stroke-width="1.1" style="-inkscape-stroke:none"/>
   <path d="m147.3 51.814c-0.71596 0-1.3066 0.59068-1.3066 1.3066s0.59068 1.3086 1.3066 1.3086 1.3086-0.59263 1.3086-1.3086-0.59263-1.3066-1.3086-1.3066zm0 1.0996c0.12148 0 0.20898 0.08555 0.20898 0.20703s-0.0875 0.20898-0.20898 0.20898-0.20703-0.08751-0.20703-0.20898c0-0.12148 0.0856-0.20703 0.20703-0.20703z" color="#000000" style="-inkscape-stroke:none"/>
   <path d="m159.52 53.122a0.75816 0.75816 0 0 1-0.75816 0.75816 0.75816 0.75816 0 0 1-0.75816-0.75816 0.75816 0.75816 0 0 1 0.75816-0.75816 0.75816 0.75816 0 0 1 0.75816 0.75816z" color="#000000" stroke-width="1.1" style="-inkscape-stroke:none"/>
   <path d="m158.76 51.814c-0.71596 3e-6 -1.3086 0.59068-1.3086 1.3066s0.59264 1.3086 1.3086 1.3086c0.71596-1e-6 1.3066-0.59263 1.3066-1.3086 0-0.71596-0.59068-1.3066-1.3066-1.3066zm0 1.0996c0.12148 0 0.20703 0.08555 0.20703 0.20703s-0.0856 0.20898-0.20703 0.20898c-0.12148 0-0.20899-0.08751-0.20899-0.20898 0-0.12148 0.0875-0.20703 0.20899-0.20703z" color="#000000" style="-inkscape-stroke:none"/>
  </g>
 </g>
</svg>
